PathFileType	4	(X/Y/Z)	Patient4_TMGait_0pt4_01_right_11.trc.trc
DataRate	CameraRate	NumFrames	NumMarkers	Units	OrigDataRate	OrigDataStartFrame	OrigNumFrames
76.502732240437	76.502732240437	5	33	mm	76.502732240437	36	       141
Frame#	Time	Sacral			L.Shoulder			Chest			R.Shoulder			Neck			R.ASIS			L.ASIS			R.Thigh.Superior			R.Thigh.Lateral			R.Thigh.Inferior			R.Patella			L.Thigh.Superior			L.Thigh.Lateral			L.Thigh.Inferior			L.Patella			L.Shank.Superior			L.Shank.Lateral			L.Shank.Inferior			R.Shank.Superior			R.Shank.Lateral			R.Shank.Inferior			R.Heel			R.Midfoot.Superior			R.Midfoot.Lateral			R.Toe			L.Heel			L.Midfoot.Lateral			L.Midfoot.Superior			L.Toe			L.Elbow			L.Wrist			R.Elbow			R.Wrist			
		X1	Y1	Z1	X2	Y2	Z2	X3	Y3	Z3	X4	Y4	Z4	X5	Y5	Z5	X6	Y6	Z6	X7	Y7	Z7	X8	Y8	Z8	X9	Y9	Z9	X10	Y10	Z10	X11	Y11	Z11	X12	Y12	Z12	X13	Y13	Z13	X14	Y14	Z14	X15	Y15	Z15	X16	Y16	Z16	X17	Y17	Z17	X18	Y18	Z18	X19	Y19	Z19	X20	Y20	Z20	X21	Y21	Z21	X22	Y22	Z22	X23	Y23	Z23	X24	Y24	Z24	X25	Y25	Z25	X26	Y26	Z26	X27	Y27	Z27	X28	Y28	Z28	X29	Y29	Z29	X30	Y30	Z30	X31	Y31	Z31	X32	Y32	Z32	X33	Y33	Z33	

36	14.457500000000	824.476915277519	1002.105139034752	498.710779702385	1005.403959827367	1430.904886510044	313.536008578037	1095.261023457419	1372.248615411098	485.044618018547	994.647362843588	1446.508197380973	649.624542123249	973.301712509397	1497.289800876080	467.793759595677	1053.104323049952	946.677477866538	624.427897184209	1046.491104218609	966.478260446896	350.566600195536	1108.327665796408	748.039943311918	587.816179950014	1035.930906031819	633.540271541277	649.497792831088	1114.465904853051	586.459096678664	566.735113149110	1121.695190077489	497.136740662465	573.133893937123	1075.579416937328	742.444900855202	370.533943893050	976.813678490078	633.047108644446	306.277360317174	1058.479025011021	545.083189134320	361.693492949559	1049.304089130403	463.985374365964	359.164379850247	990.031415049716	404.492606735853	356.702970219644	856.970236719578	336.820692864721	315.926623498270	868.722247644450	208.517305460363	374.951310067388	1093.179684830770	407.793177597290	580.599927908048	1025.006839587907	304.152916802101	644.938346683497	1064.419587159887	208.781896667129	581.358468914921	930.517813782599	44.352534749358	557.075740670733	1102.245138184287	98.263974630868	588.997536803496	1015.219948181079	37.970082720696	630.057657295483	1223.218145992860	42.557268212830	615.135457634617	697.471475616044	101.268725638553	425.029089781491	761.300764626241	68.590161444772	344.355373849434	859.615916044009	107.289921456420	359.776006048289	963.882268308813	35.518233583846	334.078123253834	1023.924139828889	1076.890875868317	201.000450709958	1130.804944353971	838.487892214839	191.259431946252	927.628796781032	1111.417301163641	779.678837039449	1060.996954506454	887.549487515637	790.725108352239	
37	14.470571428571	825.283034025607	1002.438783401720	502.866409833401	1004.099311557241	1431.426793072822	316.165398665049	1095.649828965360	1372.754368429295	486.782109148871	996.566434177758	1446.952415955556	652.302136809620	973.407557772378	1497.702861670776	470.607886307451	1054.710607381053	947.042579976063	626.541498823789	1045.882042257255	966.891083280346	352.847315311284	1108.040973027387	747.418695914342	591.046905133425	1033.924577418892	633.474543594039	652.057876411818	1112.522111195104	585.905057101066	569.718472744268	1118.658178562281	496.632555863993	575.690906455026	1079.619092626188	744.365577609674	372.670888940458	984.601684514560	633.185407498652	307.357296152139	1068.886411944305	546.497406683999	362.183038860632	1060.507963686217	464.220833110163	358.595737479323	999.235123252066	405.013088929494	356.472920349116	863.976956989153	341.780801092688	315.826233873986	872.059133256241	213.088561336199	374.248963569372	1089.890559303917	407.390758823957	582.689710459942	1021.090801762497	303.877356503688	646.598898402723	1060.039639380270	208.584802468847	582.499875167947	925.348473633738	44.450131798183	557.293725413849	1097.216711279279	98.108038791658	589.586249005797	1010.048652904080	37.873538711136	630.314254408595	1218.110843411199	42.113201195235	615.367788012561	696.994202559966	113.488373994378	423.872830589559	759.284037028345	76.953805606700	343.606804785265	859.385155658815	110.888426100134	358.793985209399	959.084341931523	34.632329281502	334.197374556742	1017.763778988050	1077.124534915274	203.799716011077	1116.916396970027	835.474961175324	193.906272039650	933.934001429052	1112.008167652268	784.804727556780	1076.738247450861	894.316997919514	793.348360498013	
38	14.483642857143	825.821175822174	1002.616456585611	506.886969975751	1002.665994608642	1431.710240279204	318.714352111002	1095.975355048629	1372.984553602825	488.384294021351	998.558981393047	1447.159421322611	654.895854130864	973.554419599063	1497.924282202747	473.344605498549	1056.041016002095	947.195862492177	628.497194360579	1045.007550219040	967.029842035449	354.965133073585	1107.540122857774	746.731797854249	594.175941774722	1031.864857821933	633.334081630716	654.562975265050	1110.518223368166	585.319506781393	572.615245015897	1115.601084570722	496.071120885014	578.246630063466	1083.734064702242	746.405646892033	374.770467524107	992.720313634475	633.386661095371	308.383622179561	1079.510368484566	548.187588013620	362.823756312303	1072.030018245689	464.797577298448	358.428865034811	1008.927321620818	405.729574505005	356.496793284407	871.729889128716	346.944453804382	315.664230157584	875.926606376899	218.086962166867	373.727391529243	1086.547205164878	406.921881044676	584.798588010231	1017.061899821526	303.556350402537	648.308394896734	1055.562055239270	208.330596268568	583.691497479320	920.046737968800	44.516037666715	557.545564724649	1092.078364882640	97.880103841461	590.180084800883	1004.757832515920	37.751421421834	630.592758587570	1212.892321637911	41.666129953057	615.568145075946	697.208926770033	126.457419309801	422.680186286284	757.902206565944	86.271346492255	342.803908397594	859.630213162808	115.195215720903	358.002370688758	954.592887289586	33.755289152773	334.325102533467	1011.186645038836	1077.189276675890	206.486545141659	1103.160834851692	832.754906620834	196.741552347549	940.424735478232	1112.440500251532	789.958306396890	1092.388796404528	901.353816844992	795.981965866503	
39	14.496714285714	826.081199017066	1002.646790996151	510.692548314069	1001.120239673641	1431.777592762735	321.166713389515	1096.224658978339	1372.952718989806	489.847787071971	1000.589534639962	1447.134276469546	657.389509882046	973.743580484332	1497.973182390867	475.990261808953	1057.073529369530	947.158118859437	630.285325814534	1043.919493789521	966.918893535932	356.892289928304	1106.849222860848	746.018043691927	597.078836297523	1029.847029011989	633.137000228088	656.958967388103	1108.497178110242	584.713886012240	575.326869203442	1112.579458466223	495.465095324916	580.719888369018	1087.824547201242	748.579426822282	376.807296317273	1000.971996852086	633.713825275322	309.366441620712	1090.107397156641	550.193237489486	363.624132260039	1083.650346048122	465.762074752269	358.663413848625	1018.901206415665	406.684469153673	356.775587457537	880.030469020440	352.247942066224	315.488351297187	880.243787045014	223.420028094746	373.403650248042	1083.203964900690	406.401003934350	586.857638394924	1012.993461953507	303.209294829164	650.015378164573	1051.045251221316	208.033776327263	584.891338116763	914.665674128034	44.558079214464	557.833698107818	1086.872642080521	97.621390872608	590.760274217639	999.398071311373	37.619937766893	630.890256370159	1207.608532606687	41.246926758931	615.751557036625	698.145566258015	139.769329193160	421.517221967454	757.254318261242	96.276592644835	341.979986829525	860.391960874380	120.150188568860	357.411023966927	950.625207756042	32.999152825977	334.407515034102	1004.186889753840	1077.103103032288	209.099918528144	1089.575030614460	830.306138407625	199.733612324916	947.158778887198	1112.689193346133	795.077614022296	1107.901304098001	908.552317390611	798.599350650030	
40	14.509785714286	826.065384112226	1002.560115093656	514.220813651584	999.487301463649	1431.675076755771	323.507436919068	1096.387779650258	1372.697238259428	491.172722856282	1002.617488231218	1446.906862091743	659.765993030366	973.971296311001	1497.886788103371	478.531445572288	1057.796767216369	946.965980685200	631.905173035583	1042.665458647453	966.608601452959	358.617455657578	1105.988532651516	745.310253180427	599.672453855878	1027.908975780204	632.901094326574	659.192882859090	1106.471900932000	584.097459995846	577.781649536542	1109.609720408240	494.831498454087	583.029338930269	1091.771116325934	750.900235241118	378.769168581110	1009.146253737671	634.232542126679	310.309442037553	1100.443855352345	552.547652804071	364.567113708973	1095.154887559063	467.152816614017	359.242411988134	1028.956389680501	407.917214254948	357.269256893052	888.669901757955	357.605584190752	315.344193690613	884.963740530943	228.952161466209	373.271123414411	1079.883063969993	405.847869639745	588.797188965654	1008.928779478917	302.856968289471	651.658756695798	1046.528829061489	207.712288504704	586.052888558691	909.251780542728	44.583256671205	558.152654257872	1081.635401953799	97.368225928683	591.309547222086	994.011362605955	37.492827792270	631.198744043713	1202.296580711963	40.880913466506	615.929665937265	699.852800870179	152.918653334752	420.457982531591	757.462158369200	106.595219841425	341.171391782517	861.757271060170	125.612916271743	357.003131692790	947.468207051094	32.500667983664	334.370159715411	996.771629234452	1076.909403470527	211.687117969661	1076.169890807446	828.123412720871	202.852707408956	954.191115762687	1112.759856496029	800.094836287391	1123.242140628762	915.828402991209	801.163904591158	
